<?xml version="1.0" encoding="UTF-8" standalone="no"?>
<!DOCTYPE svg PUBLIC "-//W3C//DTD SVG 1.1//EN"
 "http://www.w3.org/Graphics/SVG/1.1/DTD/svg11.dtd">
<!-- Generated by graphviz version 2.47.3 (20210619.1520)
 -->
<!-- Title: dependencies Pages: 1 -->
<svg width="499pt" height="174pt"
 viewBox="0.00 0.00 499.00 173.80" xmlns="http://www.w3.org/2000/svg" xmlns:xlink="http://www.w3.org/1999/xlink">
<g id="graph0" class="graph" transform="scale(1 1) rotate(0) translate(4 169.8)">
<title>dependencies</title>
<polygon fill="white" stroke="transparent" points="-4,4 -4,-169.8 495,-169.8 495,4 -4,4"/>
<text text-anchor="middle" x="245.5" y="-8.2" font-family="sans-serif" font-size="14.00">dependencies</text>
<g id="clust1" class="cluster">
<title>cluster_CoreModule</title>
<polygon fill="none" stroke="black" stroke-dasharray="1,5" points="8,-32.8 8,-157.8 483,-157.8 483,-32.8 8,-32.8"/>
</g>
<g id="clust4" class="cluster">
<title>cluster_CoreModule_exports</title>
<polygon fill="none" stroke="black" points="16,-97.8 16,-149.8 475,-149.8 475,-97.8 16,-97.8"/>
</g>
<!-- IconsModule  -->
<g id="node1" class="node">
<title>IconsModule </title>
<polygon fill="#fb8072" stroke="black" points="466.87,-141.8 373.13,-141.8 373.13,-105.8 466.87,-105.8 466.87,-141.8"/>
<text text-anchor="middle" x="420" y="-119.6" font-family="Times,serif" font-size="14.00">IconsModule </text>
</g>
<!-- LoginModule  -->
<g id="node2" class="node">
<title>LoginModule </title>
<polygon fill="#fb8072" stroke="black" points="355.49,-141.8 258.51,-141.8 258.51,-105.8 355.49,-105.8 355.49,-141.8"/>
<text text-anchor="middle" x="307" y="-119.6" font-family="Times,serif" font-size="14.00">LoginModule </text>
</g>
<!-- TemplatesModule  -->
<g id="node3" class="node">
<title>TemplatesModule </title>
<polygon fill="#fb8072" stroke="black" points="240.86,-141.8 119.14,-141.8 119.14,-105.8 240.86,-105.8 240.86,-141.8"/>
<text text-anchor="middle" x="180" y="-119.6" font-family="Times,serif" font-size="14.00">TemplatesModule </text>
</g>
<!-- UiModule  -->
<g id="node4" class="node">
<title>UiModule </title>
<polygon fill="#fb8072" stroke="black" points="101.55,-141.8 24.45,-141.8 24.45,-105.8 101.55,-105.8 101.55,-141.8"/>
<text text-anchor="middle" x="63" y="-119.6" font-family="Times,serif" font-size="14.00">UiModule </text>
</g>
<!-- CoreModule -->
<g id="node5" class="node">
<title>CoreModule</title>
<polygon fill="#8dd3c7" stroke="black" points="286.26,-76.8 283.26,-80.8 262.26,-80.8 259.26,-76.8 199.74,-76.8 199.74,-40.8 286.26,-40.8 286.26,-76.8"/>
<text text-anchor="middle" x="243" y="-54.6" font-family="Times,serif" font-size="14.00">CoreModule</text>
</g>
<!-- CoreModule&#45;&gt;IconsModule  -->
<g id="edge1" class="edge">
<title>CoreModule&#45;&gt;IconsModule </title>
<path fill="none" stroke="black" stroke-dasharray="5,2" d="M286.3,-58.8C338.7,-58.8 420,-58.8 420,-58.8 420,-58.8 420,-95.69 420,-95.69"/>
<polygon fill="black" stroke="black" points="416.5,-95.69 420,-105.69 423.5,-95.69 416.5,-95.69"/>
</g>
<!-- CoreModule&#45;&gt;LoginModule  -->
<g id="edge2" class="edge">
<title>CoreModule&#45;&gt;LoginModule </title>
<path fill="none" stroke="black" stroke-dasharray="5,2" d="M272.57,-76.91C272.57,-76.91 272.57,-95.79 272.57,-95.79"/>
<polygon fill="black" stroke="black" points="269.07,-95.79 272.57,-105.79 276.07,-95.79 269.07,-95.79"/>
</g>
<!-- CoreModule&#45;&gt;TemplatesModule  -->
<g id="edge3" class="edge">
<title>CoreModule&#45;&gt;TemplatesModule </title>
<path fill="none" stroke="black" stroke-dasharray="5,2" d="M220.15,-76.91C220.15,-76.91 220.15,-95.79 220.15,-95.79"/>
<polygon fill="black" stroke="black" points="216.65,-95.79 220.15,-105.79 223.65,-95.79 216.65,-95.79"/>
</g>
<!-- CoreModule&#45;&gt;UiModule  -->
<g id="edge4" class="edge">
<title>CoreModule&#45;&gt;UiModule </title>
<path fill="none" stroke="black" stroke-dasharray="5,2" d="M199.43,-58.8C146.16,-58.8 63,-58.8 63,-58.8 63,-58.8 63,-95.69 63,-95.69"/>
<polygon fill="black" stroke="black" points="59.5,-95.69 63,-105.69 66.5,-95.69 59.5,-95.69"/>
</g>
</g>
</svg>
