<?xml version="1.0" encoding="UTF-8" standalone="no"?>
<!DOCTYPE svg PUBLIC "-//W3C//DTD SVG 1.1//EN"
 "http://www.w3.org/Graphics/SVG/1.1/DTD/svg11.dtd">
<!-- Generated by graphviz version 2.47.3 (20210619.1520)
 -->
<!-- Title: dependencies Pages: 1 -->
<svg width="434pt" height="174pt"
 viewBox="0.00 0.00 434.00 173.80" xmlns="http://www.w3.org/2000/svg" xmlns:xlink="http://www.w3.org/1999/xlink">
<g id="graph0" class="graph" transform="scale(1 1) rotate(0) translate(4 169.8)">
<title>dependencies</title>
<polygon fill="white" stroke="transparent" points="-4,4 -4,-169.8 430,-169.8 430,4 -4,4"/>
<text text-anchor="middle" x="213" y="-8.2" font-family="sans-serif" font-size="14.00">dependencies</text>
<g id="clust1" class="cluster">
<title>cluster_PageNotFoundModule</title>
<polygon fill="none" stroke="black" stroke-dasharray="1,5" points="8,-32.8 8,-157.8 418,-157.8 418,-32.8 8,-32.8"/>
</g>
<g id="clust2" class="cluster">
<title>cluster_PageNotFoundModule_declarations</title>
<polygon fill="none" stroke="black" points="228,-40.8 228,-92.8 410,-92.8 410,-40.8 228,-40.8"/>
</g>
<g id="clust4" class="cluster">
<title>cluster_PageNotFoundModule_imports</title>
<polygon fill="none" stroke="black" points="16,-40.8 16,-92.8 220,-92.8 220,-40.8 16,-40.8"/>
</g>
<!-- PageNotFoundComponent -->
<g id="node1" class="node">
<title>PageNotFoundComponent</title>
<polygon fill="#ffffb3" stroke="black" points="401.82,-84.8 236.18,-84.8 236.18,-48.8 401.82,-48.8 401.82,-84.8"/>
<text text-anchor="middle" x="319" y="-62.6" font-family="Times,serif" font-size="14.00">PageNotFoundComponent</text>
</g>
<!-- PageNotFoundModule -->
<g id="node2" class="node">
<title>PageNotFoundModule</title>
<polygon fill="#8dd3c7" stroke="black" points="289.54,-149.8 286.54,-153.8 265.54,-153.8 262.54,-149.8 146.46,-149.8 146.46,-113.8 289.54,-113.8 289.54,-149.8"/>
<text text-anchor="middle" x="218" y="-127.6" font-family="Times,serif" font-size="14.00">PageNotFoundModule</text>
</g>
<!-- PageNotFoundComponent&#45;&gt;PageNotFoundModule -->
<g id="edge1" class="edge">
<title>PageNotFoundComponent&#45;&gt;PageNotFoundModule</title>
<path fill="none" stroke="black" d="M263.05,-84.91C263.05,-84.91 263.05,-103.79 263.05,-103.79"/>
<polygon fill="black" stroke="black" points="259.55,-103.79 263.05,-113.79 266.55,-103.79 259.55,-103.79"/>
</g>
<!-- PageNotFoundRoutingModule -->
<g id="node3" class="node">
<title>PageNotFoundRoutingModule</title>
<polygon fill="#8dd3c7" stroke="black" points="212.16,-84.8 209.16,-88.8 188.16,-88.8 185.16,-84.8 23.84,-84.8 23.84,-48.8 212.16,-48.8 212.16,-84.8"/>
<text text-anchor="middle" x="118" y="-62.6" font-family="Times,serif" font-size="14.00">PageNotFoundRoutingModule</text>
</g>
<!-- PageNotFoundRoutingModule&#45;&gt;PageNotFoundModule -->
<g id="edge2" class="edge">
<title>PageNotFoundRoutingModule&#45;&gt;PageNotFoundModule</title>
<path fill="none" stroke="black" d="M179.28,-84.91C179.28,-84.91 179.28,-103.79 179.28,-103.79"/>
<polygon fill="black" stroke="black" points="175.78,-103.79 179.28,-113.79 182.78,-103.79 175.78,-103.79"/>
</g>
</g>
</svg>
